<?xml version="1.0" encoding="utf-8"?>
<!-- Generator: Adobe Illustrator 25.4.1, SVG Export Plug-In . SVG Version: 6.00 Build 0)  -->
<svg version="1.1" id="Game-Die--Streamline-Noto-Emoji"
	 xmlns="http://www.w3.org/2000/svg" xmlns:xlink="http://www.w3.org/1999/xlink" x="0px" y="0px" viewBox="0 0 32 32"
	 style="enable-background:new 0 0 32 32;" xml:space="preserve">
<style type="text/css">
	.st0{fill:#263307;}
	.st1{fill:#EAEAEA;stroke:#263307;stroke-miterlimit:10;}
	.st2{fill:#FFFFFF;}
	.st3{fill:#DFDFDF;stroke:#263307;stroke-miterlimit:10;}
	.st4{fill:#B8B8B8;stroke:#263307;stroke-miterlimit:10;}
	.st5{fill:#3A1907;}
</style>
<desc>Game Die Streamline Emoji: https://streamlinehq.com</desc>
<path class="st0" d="M8.112,3.475c0,0-3.006,1.242-3.712,1.751C3.541,5.849,2.495,6.641,1.941,7.7
	C1.41,8.711,1.198,9.485,1.159,10.782C1.12,12.078,2.505,22.845,2.505,22.845s7.508,7.074,8.692,7.609s2.93,1.192,5.027,1.153
	s3.474-0.685,4.277-1.067c0.8-0.382,10.299-14.445,10.378-15.59s0.154-3.328,0.107-4.25c-0.05-0.946-0.243-1.702-0.74-2.656
	s-1.312-1.885-1.806-2.306c-0.497-0.418-6.731-3.218-8.618-3.641C14.368,0.882,8.112,3.475,8.112,3.475z"/>
<path class="st1" d="M3.443,7.316c0.035,1.278,1.065,1.87,3.163,2.938s7.433,4.202,9.645,4.28s10.414-4.897,11.598-5.662
	c1.172-0.757,1.369-1.967,0.269-2.794c-1.526-1.144-8.348-4.315-9.796-4.85c-0.74-0.273-2.624-0.698-4.12-0.119
	c-1.182,0.456-8.68,3.918-9.404,4.375C4.075,5.942,3.426,6.603,3.443,7.316z"/>
<path class="st2" d="M9.378,4.429C8.913,3.903,5.637,5.618,5.637,7.079c0,1.417,2.972,3.22,3.717,2.551
	C9.89,9.15,7.992,7.649,8.241,6.781C8.486,5.914,9.775,4.873,9.378,4.429z"/>
<path class="st2" d="M11.476,11.077c-0.515,0.745,2.776,2.347,4.784,2.347c1.89,0,4.977-1.846,4.58-2.381
	c-0.643-0.868-2.204-0.052-4.632,0C14.869,11.072,12.011,10.301,11.476,11.077z"/>
<path class="st2" d="M22.703,10.136c0.643,0.421,4.311-1.438,4.384-2.551s-2.279-2.452-2.949-1.981
	c-0.669,0.471,0.199,0.818-0.024,1.634S21.932,9.631,22.703,10.136z"/>
<path class="st3" d="M1.688,10.661c-0.039,1.351,0.042,9.601,0.06,10.72c0.018,1.234,0.322,2.606,1.142,3.309
	s7.468,4.92,8.964,5.565c2.094,0.904,4.13-0.089,4.277-2.342c0.146-2.256,0.057-9.139,0.057-10.075s-0.471-2.316-1.495-3.019
	c-1.025-0.703-9.128-5.351-9.96-5.829C3.562,8.319,1.748,8.64,1.688,10.661z"/>
<path class="st4" d="M17.515,14.89c-0.878,0.695-1.231,1.699-1.231,2.781s-0.058,9.431-0.029,10.281s1.231,3.105,3.105,2.549
	c1.937-0.575,4.394-2.313,6.151-3.369c1.757-1.053,3.126-1.947,3.738-2.449c0.784-0.64,1.315-2.191,1.344-3.508
	c0.029-1.289-0.008-9.356-0.031-9.988c-0.058-1.485-0.659-2.711-2.269-2.36S18.775,13.894,17.515,14.89z"/>
<path class="st5" d="M12.572,6.871c0,1.998,3.008,3.247,5.415,2.248c1.117-0.464,1.805-1.321,1.805-2.248
	c0-1.998-3.008-3.247-5.415-2.248C13.26,5.087,12.572,5.944,12.572,6.871"/>
<path class="st5" d="M6.301,13.741c0.471,1.312,0.329,2.672-0.677,3.032s-2.211-0.536-2.674-1.819
	c-0.473-1.312-0.355-2.674,0.677-3.032C4.638,11.574,5.83,12.429,6.301,13.741z"/>
<path class="st5" d="M12.922,25.256c0.559,1.276,0.528,2.787-0.45,3.215s-2.303-0.463-2.855-1.712
	c-0.562-1.276-0.478-2.674,0.499-3.103C11.097,23.227,12.363,23.98,12.922,25.256z"/>
<path class="st5" d="M26.029,16.723c0.855,0.486,2.23-0.118,2.938-1.357c0.708-1.242,0.588-2.64-0.264-3.129
	c-0.855-0.486-2.206,0.115-2.915,1.357C25.08,14.833,25.174,16.237,26.029,16.723z"/>
<path class="st5" d="M22.651,22.406c0.868,0.507,2.279-0.097,3.017-1.359c0.737-1.26,0.633-2.695-0.235-3.202
	s-2.308,0.055-3.045,1.315C21.65,20.425,21.786,21.899,22.651,22.406z"/>
<path class="st5" d="M19.298,28.215c0.839,0.512,2.232-0.052,2.977-1.27s0.667-2.622-0.173-3.134
	c-0.839-0.512-2.138-0.152-2.996,1.205C18.344,26.22,18.459,27.702,19.298,28.215z"/>
</svg>
